<svg width="106" height="74" viewBox="0 0 106 74" fill="none" xmlns="http://www.w3.org/2000/svg">
<path d="M105.896 5.04777L95.16 0.795739L96.8454 12.2191L105.896 5.04777ZM9.1385 65.3641L9.2652 64.3721L8.91181 64.327L8.60948 64.5155L9.1385 65.3641ZM102.491 4.53931C101.945 4.62299 101.57 5.13337 101.654 5.67928C101.738 6.22518 102.248 6.59989 102.794 6.51622L102.491 4.53931ZM96.4417 7.56966C96.9853 7.47214 97.347 6.95241 97.2495 6.4088C97.1519 5.8652 96.6322 5.50357 96.0886 5.60108L96.4417 7.56966ZM89.6878 6.85106C89.1476 6.96593 88.8028 7.49697 88.9177 8.03718C89.0325 8.57739 89.5636 8.92219 90.1038 8.80733L89.6878 6.85106ZM83.8268 10.2722C84.3618 10.1351 84.6843 9.5902 84.5472 9.05521C84.4101 8.52022 83.8652 8.19771 83.3302 8.33484L83.8268 10.2722ZM77.0344 10.1271C76.5079 10.2938 76.2162 10.8557 76.3829 11.3823C76.5496 11.9088 77.1116 12.2005 77.6381 12.0338L77.0344 10.1271ZM71.6097 14.1886C72.1216 13.9813 72.3686 13.3983 72.1613 12.8864C71.9541 12.3745 71.371 12.1275 70.8591 12.3348L71.6097 14.1886ZM64.8995 15.1275C64.4147 15.392 64.236 15.9994 64.5005 16.4843C64.7649 16.9691 65.3724 17.1478 65.8572 16.8833L64.8995 15.1275ZM60.5823 20.3393C61.0143 19.9952 61.0856 19.366 60.7415 18.934C60.3974 18.502 59.7682 18.4308 59.3362 18.7748L60.5823 20.3393ZM54.6109 23.5294C54.2732 23.9664 54.3537 24.5945 54.7908 24.9321C55.2278 25.2698 55.8558 25.1893 56.1935 24.7522L54.6109 23.5294ZM53.0273 30.1189C53.2529 29.6148 53.0271 29.0232 52.523 28.7977C52.0188 28.5721 51.4273 28.7979 51.2017 29.302L53.0273 30.1189ZM48.9187 35.4786C48.7467 36.0035 49.0328 36.5683 49.5576 36.7403C50.0825 36.9122 50.6473 36.6262 50.8193 36.1013L48.9187 35.4786ZM48.6196 42.2849C48.8327 41.7754 48.5924 41.1896 48.0829 40.9765C47.5734 40.7633 46.9876 41.0036 46.7745 41.5131L48.6196 42.2849ZM44.0459 46.6036C43.7315 47.0577 43.8448 47.6806 44.2989 47.995C44.753 48.3093 45.376 48.196 45.6903 47.7419L44.0459 46.6036ZM42.0188 52.0796C42.4117 51.6915 42.4157 51.0584 42.0276 50.6654C41.6395 50.2725 41.0064 50.2685 40.6134 50.6566L42.0188 52.0796ZM36.531 54.125C36.0866 54.453 35.9922 55.079 36.3201 55.5234C36.648 55.9678 37.2741 56.0623 37.7185 55.7344L36.531 54.125ZM33.0131 58.7988C33.4916 58.523 33.6559 57.9116 33.3802 57.4331C33.1044 56.9546 32.4929 56.7902 32.0144 57.066L33.0131 58.7988ZM27.2023 59.5402C26.7002 59.7701 26.4795 60.3636 26.7095 60.8658C26.9394 61.3679 27.5329 61.5886 28.035 61.3586L27.2023 59.5402ZM22.8613 63.468C23.381 63.2809 23.6505 62.708 23.4634 62.1884C23.2764 61.6688 22.7034 61.3992 22.1838 61.5863L22.8613 63.468ZM17.0136 63.2035C16.4797 63.3447 16.1613 63.892 16.3025 64.4259C16.4437 64.9599 16.991 65.2782 17.5249 65.1371L17.0136 63.2035ZM12.0034 66.2571C12.5515 66.1887 12.9403 65.6891 12.872 65.141C12.8036 64.593 12.3039 64.2041 11.7559 64.2725L12.0034 66.2571ZM6.25447 67.3269C6.11594 67.8615 6.43703 68.4072 6.97166 68.5458C7.50629 68.6843 8.052 68.3632 8.19053 67.8286L6.25447 67.3269ZM3.90273 72.476C4.43891 72.3436 4.76624 71.8016 4.63384 71.2654C4.50145 70.7292 3.95945 70.4019 3.42327 70.5343L3.90273 72.476ZM96.0886 5.60108C93.8421 6.00407 91.7107 6.42096 89.6878 6.85106L90.1038 8.80733C92.1043 8.38197 94.2147 7.96915 96.4417 7.56966L96.0886 5.60108ZM83.3302 8.33484C81.076 8.9127 78.9817 9.51053 77.0344 10.1271L77.6381 12.0338C79.5468 11.4294 81.6052 10.8417 83.8268 10.2722L83.3302 8.33484ZM70.8591 12.3348C68.6391 13.2336 66.6633 14.1655 64.8995 15.1275L65.8572 16.8833C67.5466 15.9618 69.4524 15.062 71.6097 14.1886L70.8591 12.3348ZM59.3362 18.7748C57.4103 20.3089 55.8713 21.8981 54.6109 23.5294L56.1935 24.7522C57.3541 23.2501 58.7795 21.7752 60.5823 20.3393L59.3362 18.7748ZM51.2017 29.302C50.2815 31.3587 49.5871 33.4386 48.9187 35.4786L50.8193 36.1013C51.4889 34.0575 52.1547 32.0691 53.0273 30.1189L51.2017 29.302ZM46.7745 41.5131C46.3745 42.4693 45.9329 43.4167 45.4275 44.3546L47.1882 45.3033C47.7296 44.2985 48.1988 43.2908 48.6196 42.2849L46.7745 41.5131ZM45.4275 44.3546C45.0114 45.1269 44.5492 45.8765 44.0459 46.6036L45.6903 47.7419C46.2337 46.957 46.7351 46.1442 47.1882 45.3033L45.4275 44.3546ZM40.6134 50.6566C39.3561 51.8983 37.9825 53.0541 36.531 54.125L37.7185 55.7344C39.2373 54.6137 40.6853 53.3965 42.0188 52.0796L40.6134 50.6566ZM32.0144 57.066C30.4321 57.978 28.8142 58.8021 27.2023 59.5402L28.035 61.3586C29.6981 60.597 31.3719 59.7447 33.0131 58.7988L32.0144 57.066ZM22.1838 61.5863C20.3632 62.2418 18.6167 62.7796 17.0136 63.2035L17.5249 65.1371C19.1841 64.6983 20.986 64.1432 22.8613 63.468L22.1838 61.5863ZM11.7559 64.2725C10.6028 64.4163 9.76317 64.4358 9.2652 64.3721L9.0118 66.356C9.7604 66.4516 10.7974 66.4075 12.0034 66.2571L11.7559 64.2725ZM8.60948 64.5155C7.16683 65.4148 6.50975 66.3417 6.25447 67.3269L8.19053 67.8286C8.28706 67.456 8.54602 66.9118 9.66751 66.2127L8.60948 64.5155ZM3.42327 70.5343C2.67455 70.7192 1.73596 70.9007 0.559057 71.0777L0.856521 73.0555C2.07381 72.8724 3.0765 72.68 3.90273 72.476L3.42327 70.5343Z" fill="#0080D7"/>
</svg>
